# xmcd
#
# Track frame offsets: 
#        150
#        29884
#        50075
#        70456
#        87902
#        112352
#
# Disc length: 2224 seconds
#
# Revision: 0
# Processed by: cddbd v1.5.2PL0 Copyright (c) Steve Scherf et al.
# Submitted via: ExactAudioCopy v1.0b4
#
DISCID=5f08ae06
DTITLE=Oddsocks - Live In Whelans
DYEAR=2015
DGENRE=Blues, Rockin Blues
TTITLE0=O Wichita
TTITLE1=Till The Heat
TTITLE2=What I Got
TTITLE3=Voodoo Man Blues
TTITLE4=East Of Jacksonville
TTITLE5=The Adventures Of Boogie Brown And The Boys
EXTD=
EXTT0=
EXTT1=
EXTT2=
EXTT3=
EXTT4=
EXTT5=
PLAYORDER=
